<svg id="Camada_1" data-name="Camada 1" xmlns="http://www.w3.org/2000/svg" viewBox="0 0 844 441"><defs><style>.cls-1{fill:#fff;}</style></defs><title>Tenda Digital - SVG</title><path class="cls-1" d="M475.51,233.2l-44-72.15v56.52Zm-53.89-72.51-44.3,72.59,44.3-15.72Zm112,49.76L440.86,58.4a16.87,16.87,0,0,0-28.8,0L319.5,210.1A11.13,11.13,0,0,0,327,226.84l38.29,6.91,4.65-7.37,44.91-73.58a13.47,13.47,0,0,1,11.57-6.5h0a13.48,13.48,0,0,1,11.58,6.5l44.9,73.58,4.76,7.36,38.63-7a10.84,10.84,0,0,0,7.33-16.32"/><path class="cls-1" d="M714.22,263.54c0-3-1.32-4.43-4-4.43-2.33,0-3.55,1.44-3.55,4.43v69.38c0,2.77,1.22,4.1,3.66,4.1s3.88-1.33,3.88-4.1Zm-45.43,27c11,0,18.73,9.2,18.73,19.84,0,11-7.76,19.72-18.73,19.72-10.75,0-18.62-8.76-18.62-19.72,0-10.64,7.87-19.84,18.62-19.84m18.73,3.1c-3-6.53-11.08-10.53-18.73-10.53-14.85,0-26.15,11.86-26.15,27.27,0,15.18,11.3,27.15,26.15,27.15,7.65,0,15.51-4,18.73-10.53v6.31c0,3,1.21,4.54,3.66,4.54s3.88-1.55,3.88-4.54V288.15c0-3-1.22-4.43-3.66-4.43s-3.88,1.44-3.88,4.43Zm-75.81-8.75c-2.55,0-3.77,1.11-3.77,3.32s1.22,3.21,3.77,3.21h6.43v41.45c0,2.77,1.33,4.1,3.88,4.1s3.88-1.33,3.88-4.1V291.47H633c2.77,0,4.21-1.11,4.21-3.21s-1.44-3.32-4.21-3.32h-7.1V271.53c0-2.88-1.32-4.32-3.88-4.32s-3.88,1.44-3.88,4.32v13.41Zm-16.18-21.06a4.8,4.8,0,0,0-5.1,5c0,3.33,2,5.21,5.1,5.21a5,5,0,0,0,4.76-5.21,5.07,5.07,0,0,0-4.76-5M599,288.81c0-3-1.33-4.43-3.88-4.43s-3.65,1.44-3.65,4.43v44.11c0,2.77,1.22,4.1,3.77,4.1s3.77-1.33,3.77-4.1Zm-46.32,1.88c11,0,18.73,9,18.73,19.73,0,11-7.76,19.72-18.73,19.72-10.75,0-18.62-8.76-18.62-19.72,0-10.75,7.87-19.73,18.62-19.73m18.73,3c-3-6.53-11.08-10.42-18.73-10.42-14.85,0-26.15,11.64-26.15,27.16,0,15.18,11.3,27.15,26.15,27.15,7.65,0,15.52-4.1,18.73-10.53v10.31a19.68,19.68,0,0,1-19.61,19.72,21.58,21.58,0,0,1-14.19-5.43,4.82,4.82,0,0,0-3.21-1.44,3.46,3.46,0,0,0-3.66,3.55,4.47,4.47,0,0,0,1.44,3.21c4.54,4.76,12.19,7.54,19.61,7.54A26.87,26.87,0,0,0,579,337.35V288.48c0-2.77-1.33-4.1-3.88-4.1s-3.77,1.33-3.77,4.1Zm-60-29.81a4.8,4.8,0,0,0-5.1,5c0,3.33,2,5.21,5.1,5.21a5,5,0,0,0,4.77-5.21,5.07,5.07,0,0,0-4.77-5m3.44,24.93c0-3-1.33-4.43-3.88-4.43s-3.66,1.44-3.66,4.43v44.11c0,2.77,1.22,4.1,3.77,4.1s3.77-1.33,3.77-4.1Zm-46,1.88c10.75,0,18.61,9,18.61,19.73,0,11-7.87,19.72-18.61,19.72-11,0-18.73-8.76-18.73-19.72,0-10.75,7.76-19.73,18.73-19.73m18.61,3a22.91,22.91,0,0,0-18.61-10.42c-15.08,0-26.38,11.64-26.38,27.16,0,15.18,11.3,27.15,26.38,27.15,7.54,0,15.4-4.32,18.61-10.53v5.43c0,3,1.22,4.54,3.66,4.54s3.77-1.55,3.77-4.54V263.54c0-3-1.22-4.43-3.77-4.43s-3.66,1.44-3.66,4.43Zm-57.74,30.81c-3.43,0-5.87,2.55-5.87,6.21a5.82,5.82,0,1,0,11.64,0c0-3.66-2.55-6.21-5.76-6.21m-42.44-27.15c7.09,0,12.19,6,12.19,13.08,0,7.43-5.1,13.07-12.19,13.07s-12.2-5.65-12.2-13.07c0-7.1,5.1-13.08,12.2-13.08m-2.11-14c-14.85,0-24,11.63-24,27,0,15.07,9.31,27,24,27,6.54,0,12.63-2.88,14.74-6.09,1,3.77,3.1,5.65,6.42,5.65,4.77,0,7.1-2.55,7.1-7.65v-37.9c0-4.76-2.33-7.09-6.87-7.09-3.55,0-5.54,1.77-6.32,5.21-2.55-4.32-8.42-6.2-15.07-6.2m-60.51,14c7.1,0,12.19,6,12.19,13.08,0,7.31-5.09,13.07-12.19,13.07s-12.19-5.76-12.19-13.07c0-7.1,5.1-13.08,12.19-13.08m12.19-8.87c-2.77-3.43-8.31-5.09-14.3-5.09-14.84,0-24,11.74-24,27,0,15.07,9.31,27,24,27,6.54,0,12.63-2.88,14.74-6.09.67,3.21,3.1,5.65,6.43,5.65,5,0,7.09-2.66,7.09-7.65V266.65c0-5.1-2.33-7.54-7-7.54s-7,2.44-7,7.54Zm-83.67,1.11c-.67-3.44-2.77-5.21-6.32-5.21-4.76,0-6.87,2.44-6.87,7.54v37.9c0,4.76,2.33,7.2,6.87,7.2,4.77,0,7.1-2.44,7.1-7.2V308.76c0-8,2.77-12.41,9.86-12.41s10.2,4.43,10.2,12.41V329.7c0,4.88,2.33,7.32,6.87,7.32s7-2.44,7-7.32V307.87c0-16.29-9.09-24.49-20.5-24.49-5,0-11.86,2-14.19,6.2m-50.31,6.65c5.21,0,10.19,2.33,11.52,8.2H190.16c2.11-5.87,7-8.2,12.74-8.2m16.18,17.84c5.65,0,9.09-3.11,9.09-8.43,0-10.08-9.75-22.27-25.38-22.27a27,27,0,0,0,0,54.08c7.65,0,12.52-1.78,16.51-4.54,2.66-1.78,5-4.21,5-7.21a6.65,6.65,0,0,0-6.42-6.76,8.52,8.52,0,0,0-5.54,2,13.61,13.61,0,0,1-8.75,2.88c-6.21,0-12.3-3.55-13.3-9.75Zm-54.19-18.4q5.65,0,5.65-5.32c0-3.66-1.89-5.43-5.65-5.43h-4v-8.2c0-5-2.44-7.54-7.1-7.54s-7.09,2.55-7.09,7.54v8.2h-3.1c-3.77,0-5.65,1.77-5.65,5.43s1.89,5.32,5.65,5.32h3.1v34.14c0,4.87,2.44,7.2,7.09,7.2s7.1-2.33,7.1-7.2V295.68Z"/></svg>